<svg id="Слой_1" data-name="Слой 1" xmlns="http://www.w3.org/2000/svg" viewBox="0 0 1024 1024"><path d="M619,523.11a961.62,961.62,0,0,1-16,138.31c-3,15.67-6,31.42-10.26,46.77-3.27,11.78-11.54,21-20.69,28.87-26.43,22.76-56.69,30.11-89.76,18.3-33.78-12.06-53.91-36.83-60-72.34-2.94-17.33-.18-34.17,7.05-50.2a26.67,26.67,0,0,1,3.8-5.81A934.24,934.24,0,0,1,576.59,485.53c8.77-7,18.24-8.9,28.37-3.87,9.94,4.93,14.3,13.45,14.06,24.47C618.9,511.79,619,517.45,619,523.11Z"/><path d="M890.55,583.14c-.47,81.58-24.22,155.61-72.11,221.79-7.37,10.18-17.48,14.29-28.11,11.62-17.4-4.36-24.88-24.13-15-39.36,8.67-13.41,17.93-26.53,25.52-40.54,30.31-56,42.24-116,37.44-179.33-4.59-60.6-25.16-115.41-61-164.44-5.21-7.13-7.87-14.72-5.61-23.4,2.72-10.49,9.68-17.07,20.28-19,10.43-1.92,19,1.86,25.39,10.33A362.18,362.18,0,0,1,859,432.22,368.82,368.82,0,0,1,890.55,583.14Z"/><path d="M133.48,582.68c.43-81.47,24.34-155.25,72.61-221,11.38-15.5,32.38-15.59,42.68-.42,6.21,9.13,5.41,20.18-1.05,30.41-10.74,17-22.19,33.72-31.12,51.67-25.65,51.57-35.09,106.56-31,163.88Q192.28,700,247.34,775c11.58,15.77,4.36,36.67-13.13,41.35-10.5,2.81-20.92-1-28-10.61a373.64,373.64,0,0,1-72.72-223.1Z"/><path d="M517.88,206.81q118.67,2.55,216,70.46c11.78,8.25,15.3,22,8.94,33.8-7.28,13.53-24.3,17.67-37.41,8.64-17.6-12.12-35.83-23.07-55.29-31.91a328.47,328.47,0,0,0-161-29.18q-92.88,6.45-169,60.26c-17.32,12.27-38.55,2.7-41.6-15.56-1.83-11,2.35-19.57,11.32-25.9a384.53,384.53,0,0,1,228-70.61Z"/></svg>