<svg id="Слой_1" data-name="Слой 1" xmlns="http://www.w3.org/2000/svg" viewBox="0 0 1024 1024"><path d="M526.49,518.33q-63,0-126,0c-13.54,0-23.59-7.33-26.52-19.1-4.2-16.84,7.93-32,26-32.05,32.16-.15,64.32-.05,96.48-.05,49.83,0,99.65.08,149.47,0,25,0,45.21-17.07,49.73-41.45,3.81-20.61-6.48-42.16-25-52.45s-42.1-7.78-57.71,6.32c-1.73,1.56-3.32,3.28-4.94,5-10.49,10.87-26.15,11.71-36.7,2s-11-25-1.22-36.34c48-55.63,139.17-41.62,168.9,25.93,29.52,67.08-19,141.8-92.53,142.26C606.48,518.54,566.49,518.33,526.49,518.33Z"/><path d="M374.22,551.18c52.66,0,105.33-.14,158,.05,29.11.11,52.2,12.17,68.09,36.76,20.9,32.34,14.34,75.71-14.91,101.12s-73,25.61-102.27.58c-10.76-9.22-12.47-24.59-3.94-35.44,8.76-11.13,23.76-13.07,35.7-4.61,15.16,10.73,33.66,7.49,42.48-7.44A26.26,26.26,0,0,0,539,603a59.79,59.79,0,0,0-9.46-.56q-155.74,0-311.47,0c-2.34,0-4.67,0-7-.05-15.27-.56-26.19-11.45-26-25.92.17-14.28,11.61-25.24,26.73-25.28,33.33-.08,66.66,0,100,0Z"/><path d="M711.45,551.18c19.15,0,38.31-.13,57.47,0,40.3.33,71.55,32.2,69.88,72.14-1.1,26.32-13.71,46.47-37.14,58.69s-47.23,10.86-69.81-3.16a25.49,25.49,0,0,1,25.71-44c4.72,2.46,9.4,4.1,14.79,3.2,8.53-1.43,15.41-9.25,15.48-17.76s-6.71-16.28-15.49-17.56a49.1,49.1,0,0,0-7-.35q-56.22,0-112.45,0c-13.52,0-23.15-6.42-26.8-17.5-5.51-16.78,6.7-33.52,24.86-33.7C671.13,551,691.29,551.18,711.45,551.18Z"/><path d="M305.91,518.32c-4.33,0-8.67.09-13,0-14.57-.34-25.57-11.09-25.79-25.12a25.52,25.52,0,0,1,24.54-25.9,274.46,274.46,0,0,1,29,0,25.48,25.48,0,0,1,24.28,26.12c-.34,13.83-11.24,24.49-25.52,24.87C314.91,518.42,310.41,518.32,305.91,518.32Z"/></svg>