<svg xmlns="http://www.w3.org/2000/svg">
  <symbol fill="none" viewBox="0 0 24 24" id="menu">
    <path d="M4 7C4 6.06812 4 5.60218 4.15224 5.23463C4.35523 4.74458 4.74458 4.35523 5.23463 4.15224C5.60218 4 6.06812 4 7 4C7.93188 4 8.39782 4 8.76537 4.15224C9.25542 4.35523 9.64477 4.74458 9.84776 5.23463C10 5.60218 10 6.06812 10 7C10 7.93188 10 8.39782 9.84776 8.76537C9.64477 9.25542 9.25542 9.64477 8.76537 9.84776C8.39782 10 7.93188 10 7 10C6.06812 10 5.60218 10 5.23463 9.84776C4.74458 9.64477 4.35523 9.25542 4.15224 8.76537C4 8.39782 4 7.93188 4 7Z" stroke="currentColor" stroke-width="1.5"/>
    <path d="M14 7C14 6.06812 14 5.60218 14.1522 5.23463C14.3552 4.74458 14.7446 4.35523 15.2346 4.15224C15.6022 4 16.0681 4 17 4C17.9319 4 18.3978 4 18.7654 4.15224C19.2554 4.35523 19.6448 4.74458 19.8478 5.23463C20 5.60218 20 6.06812 20 7C20 7.93188 20 8.39782 19.8478 8.76537C19.6448 9.25542 19.2554 9.64477 18.7654 9.84776C18.3978 10 17.9319 10 17 10C16.0681 10 15.6022 10 15.2346 9.84776C14.7446 9.64477 14.3552 9.25542 14.1522 8.76537C14 8.39782 14 7.93188 14 7Z" stroke="currentColor" stroke-width="1.5"/>
    <path d="M4 17C4 16.0681 4 15.6022 4.15224 15.2346C4.35523 14.7446 4.74458 14.3552 5.23463 14.1522C5.60218 14 6.06812 14 7 14C7.93188 14 8.39782 14 8.76537 14.1522C9.25542 14.3552 9.64477 14.7446 9.84776 15.2346C10 15.6022 10 16.0681 10 17C10 17.9319 10 18.3978 9.84776 18.7654C9.64477 19.2554 9.25542 19.6448 8.76537 19.8478C8.39782 20 7.93188 20 7 20C6.06812 20 5.60218 20 5.23463 19.8478C4.74458 19.6448 4.35523 19.2554 4.15224 18.7654C4 18.3978 4 17.9319 4 17Z" stroke="currentColor" stroke-width="1.5"/>
    <path d="M14 17C14 16.0681 14 15.6022 14.1522 15.2346C14.3552 14.7446 14.7446 14.3552 15.2346 14.1522C15.6022 14 16.0681 14 17 14C17.9319 14 18.3978 14 18.7654 14.1522C19.2554 14.3552 19.6448 14.7446 19.8478 15.2346C20 15.6022 20 16.0681 20 17C20 17.9319 20 18.3978 19.8478 18.7654C19.6448 19.2554 19.2554 19.6448 18.7654 19.8478C18.3978 20 17.9319 20 17 20C16.0681 20 15.6022 20 15.2346 19.8478C14.7446 19.6448 14.3552 19.2554 14.1522 18.7654C14 18.3978 14 17.9319 14 17Z" stroke="currentColor" stroke-width="1.5"/>
  </symbol>

  <symbol fill="none" viewBox="0 0 24 24" id="close">
    <path d="M5 5L19 19M5.00003 19L12 12L19 5" stroke="currentColor" stroke-width="1.5" stroke-linecap="round"/>
  </symbol>

  <symbol fill="none" viewBox="0 0 24 24" id="add">
    <path d="M5.06107 20.0451L5.50191 19.4383L5.06107 20.0451ZM3.95491 18.9389L4.56168 18.4981L3.95491 18.9389ZM20.0451 18.9389L19.4383 18.4981L20.0451 18.9389ZM18.9389 20.0451L18.4981 19.4383L18.9389 20.0451ZM18.9389 3.95491L18.4981 4.56168L18.9389 3.95491ZM20.0451 5.06107L19.4383 5.50191L20.0451 5.06107ZM5.06107 3.95491L5.50191 4.56168L5.06107 3.95491ZM3.95491 5.06107L4.56168 5.50191L3.95491 5.06107ZM12 20.25C10.1084 20.25 8.74999 20.249 7.69804 20.135C6.66013 20.0225 6.00992 19.8074 5.50191 19.4383L4.62023 20.6518C5.42656 21.2377 6.37094 21.5 7.53648 21.6263C8.68798 21.751 10.1418 21.75 12 21.75V20.25ZM2.25 12C2.25 13.8582 2.24897 15.312 2.37373 16.4635C2.50001 17.6291 2.76232 18.5734 3.34815 19.3798L4.56168 18.4981C4.19259 17.9901 3.97745 17.3399 3.865 16.302C3.75103 15.25 3.75 13.8916 3.75 12H2.25ZM5.50191 19.4383C5.14111 19.1762 4.82382 18.8589 4.56168 18.4981L3.34815 19.3798C3.70281 19.8679 4.13209 20.2972 4.62023 20.6518L5.50191 19.4383ZM20.25 12C20.25 13.8916 20.249 15.25 20.135 16.302C20.0225 17.3399 19.8074 17.9901 19.4383 18.4981L20.6518 19.3798C21.2377 18.5734 21.5 17.6291 21.6263 16.4635C21.751 15.312 21.75 13.8582 21.75 12H20.25ZM12 21.75C13.8582 21.75 15.312 21.751 16.4635 21.6263C17.6291 21.5 18.5734 21.2377 19.3798 20.6518L18.4981 19.4383C17.9901 19.8074 17.3399 20.0225 16.302 20.135C15.25 20.249 13.8916 20.25 12 20.25V21.75ZM19.4383 18.4981C19.1762 18.8589 18.8589 19.1762 18.4981 19.4383L19.3798 20.6518C19.8679 20.2972 20.2972 19.8679 20.6518 19.3798L19.4383 18.4981ZM12 3.75C13.8916 3.75 15.25 3.75103 16.302 3.865C17.3399 3.97745 17.9901 4.19259 18.4981 4.56168L19.3798 3.34815C18.5734 2.76232 17.6291 2.50001 16.4635 2.37373C15.312 2.24897 13.8582 2.25 12 2.25V3.75ZM21.75 12C21.75 10.1418 21.751 8.68798 21.6263 7.53648C21.5 6.37094 21.2377 5.42656 20.6518 4.62023L19.4383 5.50191C19.8074 6.00992 20.0225 6.66013 20.135 7.69804C20.249 8.74999 20.25 10.1084 20.25 12H21.75ZM18.4981 4.56168C18.8589 4.82382 19.1762 5.14111 19.4383 5.50191L20.6518 4.62023C20.2972 4.13209 19.8679 3.70281 19.3798 3.34815L18.4981 4.56168ZM12 2.25C10.1418 2.25 8.68798 2.24897 7.53648 2.37373C6.37094 2.50001 5.42656 2.76232 4.62023 3.34815L5.50191 4.56168C6.00992 4.19259 6.66013 3.97745 7.69804 3.865C8.74999 3.75103 10.1084 3.75 12 3.75V2.25ZM3.75 12C3.75 10.1084 3.75103 8.74999 3.865 7.69804C3.97745 6.66013 4.19259 6.00992 4.56168 5.50191L3.34815 4.62023C2.76232 5.42656 2.50001 6.37094 2.37373 7.53648C2.24897 8.68798 2.25 10.1418 2.25 12H3.75ZM4.62023 3.34815C4.13209 3.70281 3.70281 4.13209 3.34815 4.62023L4.56168 5.50191C4.82382 5.14111 5.14111 4.82382 5.50191 4.56168L4.62023 3.34815Z" fill="currentColor"/>
    <path d="M9 12H15M12 9V15" stroke="currentColor" stroke-width="1.5" stroke-linecap="round"/>
  </symbol>

  <symbol fill="none" viewBox="0 0 24 24" id="delete">
    <path d="M18.5172 12.7795L19.26 12.8829L18.5172 12.7795ZM18.2549 14.6645L18.9977 14.7679L18.2549 14.6645ZM5.74514 14.6645L6.48798 14.5611L5.74514 14.6645ZM5.4828 12.7795L4.73996 12.8829L5.4828 12.7795ZM9.18365 21.7368L8.89206 22.4278L9.18365 21.7368ZM6.47508 18.5603L7.17907 18.3017L6.47508 18.5603ZM17.5249 18.5603L18.2289 18.819V18.819L17.5249 18.5603ZM14.8164 21.7368L14.5248 21.0458H14.5248L14.8164 21.7368ZM5.74664 8.92906C5.70746 8.5167 5.34142 8.21418 4.92906 8.25336C4.5167 8.29254 4.21418 8.65858 4.25336 9.07094L5.74664 8.92906ZM19.7466 9.07094C19.7858 8.65858 19.4833 8.29254 19.0709 8.25336C18.6586 8.21418 18.2925 8.5167 18.2534 8.92906L19.7466 9.07094ZM20 7.75C20.4142 7.75 20.75 7.41421 20.75 7C20.75 6.58579 20.4142 6.25 20 6.25V7.75ZM4 6.25C3.58579 6.25 3.25 6.58579 3.25 7C3.25 7.41421 3.58579 7.75 4 7.75V6.25ZM16 7V7.75H16.75V7H16ZM8 7H7.25V7.75H8V7ZM17.7744 12.6761L17.512 14.5611L18.9977 14.7679L19.26 12.8829L17.7744 12.6761ZM6.48798 14.5611L6.22564 12.6761L4.73996 12.8829L5.0023 14.7679L6.48798 14.5611ZM12 21.25C10.4708 21.25 9.92544 21.2358 9.47524 21.0458L8.89206 22.4278C9.68914 22.7642 10.6056 22.75 12 22.75V21.25ZM5.0023 14.7679C5.282 16.7777 5.43406 17.9017 5.77109 18.819L7.17907 18.3017C6.91156 17.5736 6.77851 16.6488 6.48798 14.5611L5.0023 14.7679ZM9.47524 21.0458C8.55279 20.6566 7.69496 19.7058 7.17907 18.3017L5.77109 18.819C6.3857 20.4918 7.48205 21.8328 8.89206 22.4278L9.47524 21.0458ZM17.512 14.5611C17.2215 16.6488 17.0884 17.5736 16.8209 18.3017L18.2289 18.819C18.5659 17.9017 18.718 16.7777 18.9977 14.7679L17.512 14.5611ZM12 22.75C13.3944 22.75 14.3109 22.7642 15.1079 22.4278L14.5248 21.0458C14.0746 21.2358 13.5292 21.25 12 21.25V22.75ZM16.8209 18.3017C16.305 19.7058 15.4472 20.6566 14.5248 21.0458L15.1079 22.4278C16.5179 21.8328 17.6143 20.4918 18.2289 18.819L16.8209 18.3017ZM6.22564 12.6761C6.00352 11.08 5.83766 9.88703 5.74664 8.92906L4.25336 9.07094C4.34819 10.069 4.51961 11.2995 4.73996 12.8829L6.22564 12.6761ZM19.26 12.8829C19.4804 11.2995 19.6518 10.069 19.7466 9.07094L18.2534 8.92906C18.1623 9.88702 17.9965 11.08 17.7744 12.6761L19.26 12.8829ZM20 6.25H4V7.75H20V6.25ZM15.25 6V7H16.75V6H15.25ZM16 6.25H8V7.75H16V6.25ZM8.75 7V6H7.25V7H8.75ZM12 2.75C13.7949 2.75 15.25 4.20507 15.25 6H16.75C16.75 3.37665 14.6234 1.25 12 1.25V2.75ZM12 1.25C9.37665 1.25 7.25 3.37665 7.25 6H8.75C8.75 4.20507 10.2051 2.75 12 2.75V1.25Z" fill="currentColor"/>
    <path d="M9.25 18C9.25 18.4142 9.58579 18.75 10 18.75C10.4142 18.75 10.75 18.4142 10.75 18H9.25ZM10.75 10C10.75 9.58579 10.4142 9.25 10 9.25C9.58579 9.25 9.25 9.58579 9.25 10H10.75ZM13.25 18C13.25 18.4142 13.5858 18.75 14 18.75C14.4142 18.75 14.75 18.4142 14.75 18H13.25ZM14.75 10C14.75 9.58579 14.4142 9.25 14 9.25C13.5858 9.25 13.25 9.58579 13.25 10H14.75ZM10.75 18V10H9.25V18H10.75ZM14.75 18V10H13.25V18H14.75Z" fill="currentColor"/>
  </symbol>

  <symbol fill="none" viewBox="0 0 24 24" id="delete">
    <path d="M18.5172 12.7795L19.26 12.8829L18.5172 12.7795ZM18.2549 14.6645L18.9977 14.7679L18.2549 14.6645ZM5.74514 14.6645L6.48798 14.5611L5.74514 14.6645ZM5.4828 12.7795L4.73996 12.8829L5.4828 12.7795ZM9.18365 21.7368L8.89206 22.4278L9.18365 21.7368ZM6.47508 18.5603L7.17907 18.3017L6.47508 18.5603ZM17.5249 18.5603L18.2289 18.819V18.819L17.5249 18.5603ZM14.8164 21.7368L14.5248 21.0458H14.5248L14.8164 21.7368ZM5.74664 8.92906C5.70746 8.5167 5.34142 8.21418 4.92906 8.25336C4.5167 8.29254 4.21418 8.65858 4.25336 9.07094L5.74664 8.92906ZM19.7466 9.07094C19.7858 8.65858 19.4833 8.29254 19.0709 8.25336C18.6586 8.21418 18.2925 8.5167 18.2534 8.92906L19.7466 9.07094ZM20 7.75C20.4142 7.75 20.75 7.41421 20.75 7C20.75 6.58579 20.4142 6.25 20 6.25V7.75ZM4 6.25C3.58579 6.25 3.25 6.58579 3.25 7C3.25 7.41421 3.58579 7.75 4 7.75V6.25ZM16 7V7.75H16.75V7H16ZM8 7H7.25V7.75H8V7ZM17.7744 12.6761L17.512 14.5611L18.9977 14.7679L19.26 12.8829L17.7744 12.6761ZM6.48798 14.5611L6.22564 12.6761L4.73996 12.8829L5.0023 14.7679L6.48798 14.5611ZM12 21.25C10.4708 21.25 9.92544 21.2358 9.47524 21.0458L8.89206 22.4278C9.68914 22.7642 10.6056 22.75 12 22.75V21.25ZM5.0023 14.7679C5.282 16.7777 5.43406 17.9017 5.77109 18.819L7.17907 18.3017C6.91156 17.5736 6.77851 16.6488 6.48798 14.5611L5.0023 14.7679ZM9.47524 21.0458C8.55279 20.6566 7.69496 19.7058 7.17907 18.3017L5.77109 18.819C6.3857 20.4918 7.48205 21.8328 8.89206 22.4278L9.47524 21.0458ZM17.512 14.5611C17.2215 16.6488 17.0884 17.5736 16.8209 18.3017L18.2289 18.819C18.5659 17.9017 18.718 16.7777 18.9977 14.7679L17.512 14.5611ZM12 22.75C13.3944 22.75 14.3109 22.7642 15.1079 22.4278L14.5248 21.0458C14.0746 21.2358 13.5292 21.25 12 21.25V22.75ZM16.8209 18.3017C16.305 19.7058 15.4472 20.6566 14.5248 21.0458L15.1079 22.4278C16.5179 21.8328 17.6143 20.4918 18.2289 18.819L16.8209 18.3017ZM6.22564 12.6761C6.00352 11.08 5.83766 9.88703 5.74664 8.92906L4.25336 9.07094C4.34819 10.069 4.51961 11.2995 4.73996 12.8829L6.22564 12.6761ZM19.26 12.8829C19.4804 11.2995 19.6518 10.069 19.7466 9.07094L18.2534 8.92906C18.1623 9.88702 17.9965 11.08 17.7744 12.6761L19.26 12.8829ZM20 6.25H4V7.75H20V6.25ZM15.25 6V7H16.75V6H15.25ZM16 6.25H8V7.75H16V6.25ZM8.75 7V6H7.25V7H8.75ZM12 2.75C13.7949 2.75 15.25 4.20507 15.25 6H16.75C16.75 3.37665 14.6234 1.25 12 1.25V2.75ZM12 1.25C9.37665 1.25 7.25 3.37665 7.25 6H8.75C8.75 4.20507 10.2051 2.75 12 2.75V1.25Z" fill="currentColor"/>
    <path d="M9.25 18C9.25 18.4142 9.58579 18.75 10 18.75C10.4142 18.75 10.75 18.4142 10.75 18H9.25ZM10.75 10C10.75 9.58579 10.4142 9.25 10 9.25C9.58579 9.25 9.25 9.58579 9.25 10H10.75ZM13.25 18C13.25 18.4142 13.5858 18.75 14 18.75C14.4142 18.75 14.75 18.4142 14.75 18H13.25ZM14.75 10C14.75 9.58579 14.4142 9.25 14 9.25C13.5858 9.25 13.25 9.58579 13.25 10H14.75ZM10.75 18V10H9.25V18H10.75ZM14.75 18V10H13.25V18H14.75Z" fill="currentColor"/>
  </symbol>

  <symbol fill="none" viewBox="0 0 24 24" id="transfer">
    <path d="M5 18H19M5 6H19M5 12H19" stroke="currentColor" stroke-width="1.5" stroke-linecap="round"/>
  </symbol>
</svg>